<svg version="1" xmlns="http://www.w3.org/2000/svg" width="1200" height="1200" viewBox="0 0 900.000000 900.000000"><path d="M373.6 208.2c-2.4 3.7-3.6 11.9-3.6 25.3 0 6.7-.3 12.5-.7 12.9-.4.4-.6 2.6-.5 4.9.1 2.3-.6 8.4-1.7 13.5-2.1 10-1.5 9.1-14.1 22.3-4.2 4.5-8.6 6.8-16.6 8.8-3.8 1-10.8 5.7-14.8 10-1.7 1.7-3.6 3.1-4.3 3.1-.7 0-1.3.5-1.3 1.2 0 1.6-4.9 12-6.6 13.8-.7.9-2 4.9-2.9 8.9-.8 4-2.6 9.6-3.8 12.4-3.3 7.3-5.4 14.1-6.6 21.7-.6 3.6-1.6 6.9-2.3 7.5-.7.5-1.2 2.1-1 3.3.2 1.3-.1 3.6-.6 5-.5 1.5-1.8 5.4-2.7 8.7-1 3.3-2.4 7.7-3.1 9.8-.8 2-1.4 5.2-1.4 7 0 1.8-.5 3.8-1.1 4.4-1.4 1.4-1.4 26.5.1 29.2.6 1.2 1.1 4.3 1 6.9-.1 6.3.5 9.6 2.8 16.7 5 14.8 8.4 23.1 11.2 27.5 1.6 2.5 3 5.3 3 6.1 0 2.7-5.1 16.3-6.8 18.2-1.7 1.9-2 7.1-1 16.5.3 2.7 0 4.9-.8 6-.8.9-1.4 3.2-1.4 5.1 0 1.8-.8 5.5-1.7 8.3-1.5 4-1.6 5-.4 5.7 1.6 1.1.7 11.4-1.5 15.6-.8 1.5-1.4 3.8-1.4 5.1 0 2.2-1.9 6.2-6 12.9-1 1.6-1.9 3.8-1.9 4.7-.1.9 2.9 4.6 6.7 8.1 23.3 22.5 45.8 37.8 75.2 51 11.8 5.4 39.2 12.6 58.5 15.4 22.4 3.2 81.6 1.9 100.5-2.3 3.6-.7 7.4-1.5 8.5-1.7 10.6-1.8 35.9-12.2 49.5-20.3 3.6-2.1 9.1-5.2 12.2-6.8 14.3-7.5 34.4-24 43.9-36.2 3.8-5 3.9-5.3 3.9-13.2 0-4.4.5-8.4 1-8.7.6-.4.7-1.1.4-1.7-.4-.6-.8-2.2-1-3.5-.1-1.3-.7-5.4-1.3-9.1-.5-3.7-1.3-12.3-1.7-19.2-.3-6.9-1-13.2-1.5-14.1-2-3.8-2.8-18.7-1.1-19.8 1.7-1.1 2.2-10.9.7-14.4-1.3-3.1-3.1-20.3-2.9-27 0-1.5-.3-2.7-.7-2.7-1 0-2.9-5.8-2.9-9 0-1.5-1.5-5.6-3.4-9.1-3.7-7.1-7.7-20.5-10.1-34.2-.8-4.9-3.1-13-5.1-17.9-2.1-5-3.8-10.5-3.9-12.2-.1-1.7-.8-4.4-1.4-6-.7-1.7-.8-3.2-.3-3.5 1.6-1.1.5-12.3-2.2-22.4-1.4-5.4-2.5-11-2.4-12.5.1-1.6-2-6.8-5.4-13.2-3-5.8-6.7-13.7-8.2-17.6l-2.7-7.1 2.1-7.5c1.1-4.1 2.4-11.5 2.9-16.4.5-4.9 1-9.4 1.1-9.9.2-.6 0-1.7-.3-2.5s-.8-4-1-7c-.9-10.5-3.1-22.5-4.4-23.8-.7-.7-1.3-2.6-1.3-4.1 0-4.9-1.2-9.1-2.6-9.1-.7 0-2-1.3-2.9-3-1.5-2.9-6.1-5-11.3-5-1.3 0-3.2-.5-4.3-1.1-1.6-.8-2.5-.7-3.9.6-1.1 1-2.6 1.5-3.4 1.2-1.1-.4-2.6.9-4.8 4.1-3.1 4.6-5.7 7.4-20 22.2-4 4.2-8.9 9.8-11 12.5-5.8 7.9-8.2 9.8-14.1 10.6-6.5.9-27.7-1-27.7-2.6 0-.8-2.3-.8-8-.1-8.1.9-8.1.9-11.2-2-1.7-1.6-2.8-2.3-2.4-1.7.5 1-.4 1.2-3.6.8-2.4-.3-9-.9-14.7-1.5-12.3-1.2-16.2-3.1-21.5-10.1-2-2.7-5.8-9.6-8.5-15.4-3.7-7.8-6.7-12.5-12-18.5-3.9-4.4-7.1-8.3-7.1-8.8 0-.4-1-.8-2.2-.9-1.3-.1-3.7-.5-5.5-.8-2.6-.6-3.4-.3-4.7 1.7z"/></svg>