<svg id="svg" version="1.1" xmlns="http://www.w3.org/2000/svg" xmlns:xlink="http://www.w3.org/1999/xlink" width="400" height="456.27906976744185" viewBox="0, 0, 400,456.27906976744185"><g id="svgg"><path id="path0" d="M296.055 56.841 C 285.591 68.055,274.704 74.756,256.744 81.038 C 253.802 82.067,250.767 83.073,250.000 83.273 C 249.233 83.474,246.973 84.080,244.980 84.621 C 242.986 85.162,239.847 85.907,238.003 86.277 C 236.160 86.647,232.218 87.468,229.245 88.101 C 223.525 89.320,212.941 90.906,205.581 91.646 C 203.151 91.891,198.651 92.401,195.581 92.780 C 192.512 93.160,188.012 93.691,185.581 93.960 C 180.457 94.528,168.316 96.056,163.256 96.770 C 149.636 98.692,133.799 102.874,123.953 107.149 C 121.395 108.260,117.883 109.748,116.148 110.457 C 110.065 112.942,93.834 122.924,85.581 129.258 C 81.126 132.677,80.845 132.914,76.977 136.530 C 75.442 137.964,73.310 139.869,72.240 140.763 C 63.996 147.645,51.348 164.069,44.531 176.744 C 33.566 197.132,30.742 229.705,38.604 245.115 C 41.631 251.049,47.967 257.037,54.078 259.740 C 59.441 262.111,60.345 261.930,65.857 257.371 C 75.274 249.585,81.781 244.165,84.347 241.972 C 85.921 240.627,88.831 238.239,90.814 236.665 C 94.384 233.831,95.229 232.392,93.605 231.918 C 93.157 231.787,90.698 231.120,88.140 230.436 C 65.440 224.362,56.029 203.309,64.452 177.442 C 68.612 164.665,82.663 150.734,95.814 146.346 C 107.559 142.428,128.171 139.833,140.745 140.690 L 145.672 141.026 145.455 142.490 C 145.335 143.295,144.355 147.093,143.277 150.930 C 139.827 163.207,137.736 170.814,136.565 175.349 C 135.938 177.779,134.989 181.337,134.456 183.256 C 133.922 185.174,132.122 192.291,130.455 199.070 C 126.475 215.251,126.599 214.725,126.082 217.674 C 125.835 219.081,125.095 222.744,124.438 225.814 C 118.043 255.670,119.195 284.254,127.451 300.590 C 139.000 323.445,174.487 332.541,195.532 318.042 C 198.124 316.257,203.932 311.907,204.855 311.060 C 206.079 309.937,205.815 309.790,210.105 313.960 C 224.485 327.936,244.537 330.118,263.488 319.771 C 272.890 314.637,286.278 301.082,291.629 291.280 C 292.013 290.576,292.771 289.267,293.314 288.372 C 294.462 286.477,299.792 275.885,301.578 271.950 C 308.513 256.669,312.978 235.631,312.405 220.930 C 312.067 212.241,312.293 211.187,314.651 210.458 C 322.488 208.036,328.240 203.037,331.975 195.404 C 339.316 180.402,328.052 165.110,314.658 171.896 C 309.127 174.698,308.715 175.476,311.744 177.400 C 317.684 181.174,317.917 187.907,312.109 187.907 C 308.753 187.907,305.989 185.695,301.063 179.070 C 292.470 167.512,281.375 165.261,270.052 172.777 C 258.985 180.122,257.751 186.948,265.739 196.629 C 272.659 205.014,275.707 212.596,277.463 225.784 C 283.132 268.382,252.914 311.947,226.180 299.719 C 222.196 297.897,221.877 296.535,224.649 293.180 C 228.331 288.724,230.646 285.549,237.550 275.489 C 248.182 259.994,252.518 236.713,247.336 222.938 C 239.423 201.902,207.856 200.784,192.933 221.012 C 180.361 238.053,180.694 270.781,193.661 292.715 C 196.228 297.056,196.242 297.202,194.277 298.927 C 186.566 305.698,176.843 305.700,169.667 298.932 C 168.717 298.036,167.455 296.915,166.864 296.442 C 153.573 285.806,156.315 247.541,173.260 207.209 C 174.979 203.116,176.756 198.721,177.207 197.442 C 177.658 196.163,179.012 193.023,180.216 190.465 C 182.669 185.249,187.907 173.268,187.907 172.871 C 187.907 172.729,188.768 170.769,189.820 168.516 C 192.471 162.839,198.278 149.523,199.245 146.901 C 200.321 143.987,200.013 144.052,213.488 143.881 C 232.615 143.637,237.135 143.406,242.791 142.383 C 253.648 140.418,267.888 134.424,272.419 129.910 C 272.883 129.448,274.567 128.046,276.162 126.795 C 284.707 120.092,293.859 104.321,297.188 90.565 C 300.367 77.429,301.876 64.495,301.079 57.215 C 300.574 52.607,300.042 52.567,296.055 56.841 M220.271 237.491 C 224.969 239.721,225.163 250.369,220.628 257.116 C 219.644 258.581,217.209 264.144,217.209 264.929 C 217.209 266.308,212.656 274.929,211.772 275.223 C 210.557 275.628,208.065 265.060,207.606 257.551 C 206.705 242.819,212.421 233.766,220.271 237.491 " stroke="none" fill="#000000" fill-rule="evenodd"></path></g></svg>